<svg xmlns="http://www.w3.org/2000/svg" width="27" height="26" viewBox="0 0 27 26">
    <path fill="#FFF" fill-rule="evenodd" d="M13.5 0C6.044 0 0 5.967 0 13.33c0 5.888 3.868 10.884 9.233 12.647.675.122.922-.29.922-.642 0-.317-.012-1.155-.019-2.267-3.756.805-4.548-1.787-4.548-1.787-.613-1.54-1.498-1.95-1.498-1.95-1.226-.827.092-.81.092-.81 1.355.094 2.068 1.374 2.068 1.374 1.205 2.037 3.16 1.448 3.929 1.107.122-.862.472-1.449.857-1.782-2.998-.337-6.149-1.48-6.149-6.587 0-1.456.526-2.645 1.39-3.577-.14-.338-.603-1.692.131-3.528 0 0 1.134-.358 3.713 1.367a13.116 13.116 0 0 1 3.38-.45 13.13 13.13 0 0 1 3.38.45c2.577-1.725 3.708-1.367 3.708-1.367.737 1.836.274 3.19.134 3.528.866.932 1.388 2.121 1.388 3.577 0 5.12-3.156 6.247-6.163 6.577.484.411.916 1.225.916 2.468 0 1.782-.017 3.22-.017 3.657 0 .356.243.771.928.64C23.135 24.21 27 19.217 27 13.33 27 5.967 20.955 0 13.5 0"/>
</svg>
