<?xml version="1.0" encoding="UTF-8"?>
<svg width="26px" height="26px" viewBox="0 0 26 26" version="1.1" xmlns="http://www.w3.org/2000/svg" xmlns:xlink="http://www.w3.org/1999/xlink">
    <title>LinkedIn</title>
    <desc>Created by Vauxoo.</desc>
    <g id="Artboard" stroke="none" stroke-width="1" fill="none" fill-rule="evenodd">
        <path d="M25.9467332,16.2346125 L25.9467332,25.8272854 L20.3855081,25.8272854 L20.3855081,16.8770719 C20.3855081,14.6287053 19.5811369,13.0942831 17.5681578,13.0942831 C16.0315035,13.0942831 15.1170394,14.1283712 14.7147332,15.1286775 C14.5680232,15.4862831 14.5302599,15.9840232 14.5302599,16.4845986 L14.5302599,25.8272854 L8.96716473,25.8272854 C8.96716473,25.8272854 9.04208817,10.6685615 8.96716473,9.09800464 L14.5297169,9.09800464 L14.5297169,11.4693132 C14.5184362,11.4870487 14.5037773,11.5061717 14.4931601,11.5233643 L14.5297169,11.5233643 L14.5297169,11.4693132 C15.2687564,10.3310441 16.5886032,8.7049884 19.5428306,8.7049884 C23.2029188,8.70492807 25.9467332,11.0960232 25.9467332,16.2346125 Z M3.14793039,1.03366125 C1.24480278,1.03366125 0,2.28196288 0,3.92352204 C0,5.52930858 1.20878886,6.8154942 3.07409281,6.8154942 L3.1112529,6.8154942 C5.05123898,6.8154942 6.2577355,5.52954988 6.2577355,3.92352204 C6.22117865,2.28196288 5.05123898,1.03366125 3.14793039,1.03366125 Z M0.330399072,25.8272854 L5.89138283,25.8272854 L5.89138283,9.09800464 L0.330399072,9.09800464 L0.330399072,25.8272854 Z" id="LinkedIn" fill="#FFFFFF" fill-rule="nonzero"></path>
    </g>
</svg>