<svg xmlns="http://www.w3.org/2000/svg" width="60" height="51" viewBox="0 0 60 51">
    <g fill="#CACFD6" fill-rule="evenodd">
        <path d="M1.716 49.878H0l1.716-9.26H6.14c.684 0 1.73.95 1.73 1.9 0 1.143-.912 2.612-2.735 3.087.456 1.187 1.261 4.273 1.261 4.273h-1.81l-1.274-4.986c1.367 0 2.735-.237 2.735-1.9 0-.711-.684-.949-1.595-.949H3.084l-1.368 7.835zM8.003 49.878l1.728-9.26h6.078l-.284 1.405H11.27l-.437 2.414h3.609l-.228 1.405H10.49l-.456 2.592h4.217l-.228 1.444zM15.505 49.878l1.88-9.26h2.11l2.886 7.143 1.386-7.142h1.615l-1.9 9.259h-2.184l-2.849-6.885-1.31 6.885zM26.996 40.619h1.842l-1.67 9.259h-1.786zM28.924 49.878l1.729-9.26h6.078l-.285 1.405H32.19l-.437 2.414h3.609l-.228 1.405h-3.722l-.456 2.592h4.216l-.228 1.444zM44.565 40.935s-.911-.316-1.804-.316-5.945.712-5.945 5.916c0 2.571 2.146 3.58 3.874 3.58 1.729 0 2.223-.237 2.223-.237l.475-1.444s-1.121.276-2.242.276c-1.12 0-2.545-.455-2.545-2.373 0-2.89 2.45-4.314 3.913-4.314 1.462 0 2.051.337 2.051.337v-1.425zM45.4 40.619h1.9l1.14 3.957 2.754-3.957h1.823l-4.178 5.56-.646 3.699h-1.804l.797-3.997zM59.855 40.619l-.266 1.414h-2.602l-1.463 7.845h-1.766l1.538-7.845h-2.469l.19-1.414z"/>
        <g>
            <path d="M30.238 16.41c0 .442-.363.8-.81.8a.804.804 0 0 1-.808-.8c0-.441.362-.8.808-.8.447 0 .81.359.81.8M32.76 7.144a1.71 1.71 0 0 1-1.719 1.7c-.95 0-1.72-.761-1.72-1.7 0-.938.77-1.699 1.72-1.699s1.72.76 1.72 1.7M36.425 8.754a1.71 1.71 0 0 1-1.72 1.7c-.949 0-1.718-.761-1.718-1.7 0-.938.77-1.699 1.719-1.699.949 0 1.719.76 1.719 1.7M39.464 11.761c0 .939-.77 1.7-1.719 1.7-.95 0-1.72-.761-1.72-1.7 0-.938.77-1.699 1.72-1.699s1.72.761 1.72 1.7M40.518 15.807c0 .938-.77 1.699-1.72 1.699s-1.719-.761-1.719-1.7c0-.938.77-1.698 1.72-1.698.949 0 1.719.76 1.719 1.699M39.93 19.992c0 .938-.77 1.699-1.72 1.699-.948 0-1.718-.76-1.718-1.7 0-.938.77-1.698 1.719-1.698.95 0 1.719.76 1.719 1.699M37.644 23.187c0 .938-.77 1.699-1.72 1.699-.949 0-1.718-.76-1.718-1.699 0-.938.77-1.699 1.719-1.699.95 0 1.72.76 1.72 1.699M34.214 25.386c0 .938-.77 1.699-1.719 1.699-.95 0-1.719-.761-1.719-1.7 0-.938.77-1.698 1.72-1.698.949 0 1.718.76 1.718 1.699M30.044 25.677a1.71 1.71 0 0 1-1.719 1.699c-.95 0-1.719-.761-1.719-1.7 0-.938.77-1.698 1.72-1.698.948 0 1.718.76 1.718 1.699M26.02 24.208a1.71 1.71 0 0 1-1.72 1.699c-.949 0-1.718-.76-1.718-1.699 0-.938.77-1.699 1.719-1.699.949 0 1.719.76 1.719 1.7M23.097 21.468c0 .939-.77 1.7-1.719 1.7-.95 0-1.72-.761-1.72-1.7 0-.938.77-1.698 1.72-1.698s1.72.76 1.72 1.698M21.778 17.359c0 .938-.77 1.698-1.72 1.698-.949 0-1.718-.76-1.718-1.698 0-.939.77-1.7 1.719-1.7.95 0 1.719.761 1.719 1.7M22.645 12.821c0 .939-.77 1.7-1.72 1.7-.949 0-1.718-.761-1.718-1.7 0-.938.77-1.698 1.719-1.698.95 0 1.719.76 1.719 1.698M24.89 9.184c0 .938-.77 1.699-1.72 1.699-.949 0-1.719-.761-1.719-1.7 0-.938.77-1.698 1.72-1.698.949 0 1.718.76 1.718 1.699M28.65 7.511c0 .939-.77 1.7-1.719 1.7-.95 0-1.72-.761-1.72-1.7 0-.938.77-1.699 1.72-1.699s1.72.76 1.72 1.7M31.336 2.199c0 1.214-.996 2.198-2.225 2.198s-2.225-.984-2.225-2.198C26.886.984 27.882 0 29.111 0s2.225.984 2.225 2.199M36.456 3.089c0 1.214-.997 2.198-2.225 2.198-1.23 0-2.225-.984-2.225-2.198 0-1.215.996-2.199 2.225-2.199 1.228 0 2.225.984 2.225 2.199M40.812 5.759c0 1.214-.996 2.198-2.225 2.198s-2.225-.984-2.225-2.198.996-2.199 2.225-2.199 2.225.985 2.225 2.199M44.251 9.593c0 1.214-.996 2.199-2.224 2.199-1.229 0-2.225-.985-2.225-2.199s.996-2.198 2.225-2.198c1.228 0 2.224.984 2.224 2.198M45.75 14.62c0 1.215-.996 2.2-2.225 2.2-1.228 0-2.224-.985-2.224-2.2 0-1.214.996-2.198 2.224-2.198 1.229 0 2.225.984 2.225 2.198M45.463 19.99c0 1.215-.996 2.2-2.225 2.2-1.228 0-2.224-.985-2.224-2.2 0-1.214.996-2.198 2.224-2.198 1.23 0 2.225.984 2.225 2.199M43.49 24.727c0 1.214-.996 2.199-2.225 2.199-1.228 0-2.225-.985-2.225-2.199s.997-2.198 2.225-2.198c1.229 0 2.225.984 2.225 2.198M39.96 28.294c0 1.215-.997 2.199-2.225 2.199-1.229 0-2.225-.984-2.225-2.199 0-1.214.996-2.198 2.225-2.198 1.228 0 2.224.984 2.224 2.198M34.956 30.493c0 1.214-.996 2.199-2.225 2.199s-2.225-.985-2.225-2.199.996-2.199 2.225-2.199 2.225.985 2.225 2.199M29.576 30.622c0 1.215-.996 2.199-2.225 2.199s-2.225-.984-2.225-2.199c0-1.214.996-2.198 2.225-2.198s2.225.984 2.225 2.198M24.628 28.829c0 1.214-.996 2.198-2.224 2.198-1.229 0-2.225-.984-2.225-2.198s.996-2.199 2.225-2.199c1.228 0 2.224.985 2.224 2.199M20.78 25.46c0 1.215-.995 2.199-2.224 2.199-1.228 0-2.224-.984-2.224-2.199 0-1.214.996-2.198 2.224-2.198 1.229 0 2.225.984 2.225 2.198M18.149 20.799c0 1.214-.997 2.198-2.225 2.198-1.23 0-2.225-.984-2.225-2.198s.996-2.199 2.225-2.199c1.228 0 2.225.985 2.225 2.199M17.557 15.6c0 1.214-.996 2.198-2.225 2.198s-2.225-.984-2.225-2.198.996-2.199 2.225-2.199 2.225.985 2.225 2.199M18.758 10.2c0 1.215-.997 2.2-2.225 2.2-1.229 0-2.225-.985-2.225-2.2 0-1.214.996-2.198 2.225-2.198 1.228 0 2.225.984 2.225 2.199M21.776 5.9c0 1.215-.996 2.2-2.224 2.2-1.23 0-2.225-.985-2.225-2.2 0-1.213.996-2.198 2.225-2.198 1.228 0 2.224.985 2.224 2.199M26.226 3.374c0 1.214-.996 2.198-2.225 2.198s-2.225-.984-2.225-2.198.996-2.199 2.225-2.199 2.225.985 2.225 2.199M31.249 10.66c0 .717-.589 1.299-1.315 1.299a1.307 1.307 0 0 1-1.314-1.299c0-.717.588-1.299 1.314-1.299.726 0 1.315.582 1.315 1.299M34.12 11.86c0 .717-.589 1.299-1.315 1.299a1.307 1.307 0 0 1-1.314-1.299c0-.717.588-1.3 1.314-1.3.726 0 1.315.583 1.315 1.3M36.197 14.34c0 .717-.588 1.299-1.315 1.299a1.307 1.307 0 0 1-1.314-1.3c0-.717.589-1.298 1.314-1.298.727 0 1.315.581 1.315 1.299M36.197 17.438c0 .718-.588 1.3-1.315 1.3a1.307 1.307 0 0 1-1.314-1.3c0-.717.589-1.3 1.314-1.3.727 0 1.315.583 1.315 1.3M35.097 20.588c0 .718-.589 1.3-1.315 1.3a1.307 1.307 0 0 1-1.314-1.3c0-.717.588-1.299 1.314-1.299.726 0 1.315.582 1.315 1.3M32.408 22.163c0 .717-.588 1.297-1.313 1.297-.724 0-1.312-.58-1.312-1.297 0-.716.588-1.296 1.312-1.296.725 0 1.313.58 1.313 1.296M29.217 22.092c0 .716-.587 1.297-1.312 1.297-.725 0-1.312-.58-1.312-1.297 0-.716.587-1.297 1.312-1.297.725 0 1.312.581 1.312 1.297M26.528 20.032c0 .717-.588 1.299-1.315 1.299a1.307 1.307 0 0 1-1.314-1.3c0-.717.589-1.299 1.314-1.299.727 0 1.315.582 1.315 1.3M25.29 16.899c0 .717-.59 1.3-1.315 1.3a1.307 1.307 0 0 1-1.315-1.3c0-.718.589-1.3 1.315-1.3s1.314.582 1.314 1.3M26.283 13.766c0 .718-.589 1.3-1.315 1.3a1.307 1.307 0 0 1-1.314-1.3c0-.717.588-1.299 1.314-1.299.726 0 1.315.582 1.315 1.3M28.356 11.445c0 .718-.589 1.3-1.315 1.3a1.307 1.307 0 0 1-1.315-1.3c0-.717.589-1.299 1.315-1.299s1.315.582 1.315 1.3M31.176 13.87c0 .496-.407.9-.91.9a.905.905 0 0 1-.91-.9c0-.497.407-.9.91-.9.503 0 .91.403.91.9M28.63 14.249c0 .496-.408.899-.91.899a.905.905 0 0 1-.911-.9c0-.496.407-.899.91-.899.503 0 .91.403.91.9M27.814 16.928c0 .496-.408.899-.91.899a.905.905 0 0 1-.91-.9c0-.496.407-.899.91-.899.502 0 .91.403.91.9M29.634 18.951c0 .497-.408.9-.91.9a.905.905 0 0 1-.91-.9c0-.496.407-.899.91-.899.502 0 .91.403.91.9M32.252 18.35c0 .497-.407.9-.91.9a.905.905 0 0 1-.91-.9c0-.497.407-.9.91-.9.503 0 .91.403.91.9M32.864 15.842c0 .497-.408.9-.91.9a.905.905 0 0 1-.91-.9c0-.496.407-.9.91-.9.502 0 .91.404.91.9"/>
        </g>
    </g>
</svg>
