<svg xmlns="http://www.w3.org/2000/svg" width="28" height="23" viewBox="0 0 28 23">
    <path fill="#FFF" fill-rule="evenodd" d="M28 2.723a11.346 11.346 0 0 1-3.298.913 5.806 5.806 0 0 0 2.526-3.21 11.411 11.411 0 0 1-3.65 1.406A5.702 5.702 0 0 0 19.384 0c-3.17 0-5.742 2.6-5.742 5.806 0 .455.049.897.147 1.322C9.016 6.886 4.784 4.577 1.95 1.06a5.846 5.846 0 0 0-.778 2.922 5.821 5.821 0 0 0 2.555 4.833 5.702 5.702 0 0 1-2.603-.725v.072c0 2.814 1.98 5.161 4.61 5.693-.481.136-.99.204-1.514.204-.37 0-.73-.035-1.081-.103.731 2.306 2.851 3.985 5.366 4.03a11.445 11.445 0 0 1-7.134 2.487c-.464 0-.922-.026-1.371-.08A16.16 16.16 0 0 0 8.806 23C19.373 23 25.15 14.154 25.15 6.48c0-.252-.005-.504-.015-.752A11.692 11.692 0 0 0 28 2.723"/>
</svg>
