<svg xmlns="http://www.w3.org/2000/svg" width="163" height="30" viewBox="0 0 163 30">
    <g fill="none" fill-rule="evenodd">
        <path fill="#23292B" d="M51.277 17.255l5.54-12.9a.17.17 0 0 1 .158-.103h3.15c.119 0 .198.12.15.229l-8.998 20.686a.164.164 0 0 1-.3 0L41.948 4.481a.163.163 0 0 1 .15-.229h3.174c.068 0 .13.04.157.103l5.545 12.9a.164.164 0 0 0 .302 0M67.566 12.51l-5.19 12.08a.172.172 0 0 1-.156.104h-3.146a.164.164 0 0 1-.15-.229l8.643-19.868a.164.164 0 0 1 .3 0l8.67 19.868a.164.164 0 0 1-.15.229h-3.172a.171.171 0 0 1-.157-.103l-5.19-12.081a.164.164 0 0 0-.302 0M82.14 23.887a6.084 6.084 0 0 1-1.822-2.205c-.47-.936-.69-1.983-.69-3.112V4.416c0-.091.073-.164.164-.164h2.876c.09 0 .163.073.163.164V18.57c0 1.212.442 2.148 1.271 2.781.773.607 1.906.965 3.12.965 1.188 0 2.32-.358 3.121-.965.83-.633 1.243-1.57 1.243-2.781V4.416c0-.091.074-.164.164-.164h2.903c.091 0 .165.073.165.164V18.57c0 1.13-.249 2.176-.69 3.112a6.698 6.698 0 0 1-1.823 2.205c-1.354 1.046-3.15 1.625-5.082 1.625-1.933 0-3.728-.579-5.082-1.625M113.38 24.551l-5.235-7.649a.165.165 0 0 0-.271 0l-5.208 7.649a.331.331 0 0 1-.272.142h-3.548a.163.163 0 0 1-.136-.255l7.157-10.498a.327.327 0 0 0 0-.368l-6.19-9.064a.164.164 0 0 1 .135-.256h3.55a.33.33 0 0 1 .27.143l4.242 6.216a.164.164 0 0 0 .271 0l4.268-6.217a.328.328 0 0 1 .27-.142h3.55c.131 0 .209.147.135.256l-6.216 9.064a.326.326 0 0 0 0 .369l7.182 10.497a.163.163 0 0 1-.135.255h-3.549a.33.33 0 0 1-.27-.142"/>
        <path fill="#A3142C" d="M128.966 21.423c-3.848 0-6.967-3.112-6.967-6.95 0-3.839 3.12-6.95 6.967-6.95 3.848 0 6.968 3.111 6.968 6.95 0 3.838-3.12 6.95-6.968 6.95m0-17.17c-5.659 0-10.246 4.575-10.246 10.22 0 5.644 4.587 10.22 10.246 10.22 5.659 0 10.246-4.576 10.246-10.22 0-5.645-4.587-10.22-10.246-10.22M152.648 21.423c-3.847 0-6.967-3.112-6.967-6.95 0-3.839 3.12-6.95 6.967-6.95 3.849 0 6.968 3.111 6.968 6.95 0 3.838-3.12 6.95-6.968 6.95m0-17.17c-5.658 0-10.246 4.575-10.246 10.22 0 5.644 4.588 10.22 10.246 10.22 5.659 0 10.247-4.576 10.247-10.22 0-5.645-4.588-10.22-10.247-10.22"/>
        <g>
            <path fill="#B90B3A" d="M24.032 20.886l-6.019-6.004 6.019-6.004 5.654 5.641c.201.2.201.526 0 .726l-5.654 5.64z"/>
            <path fill="#A3142C" d="M21.023 17.884l-3.01-3.002 3.01-3.002 3.009 3.002z"/>
            <path fill="#C9033E" d="M27.04 17.884l2.646-2.639c.201-.2.201-.525 0-.726l-2.645-2.639-3.01 3.002 3.01 3.002z"/>
            <path fill="#B90B3A" d="M5.805 20.886l6.019-6.004-6.019-6.004-5.654 5.641c-.201.2-.201.526 0 .726l5.654 5.64z"/>
            <path fill="#A3142C" d="M8.814 17.884l3.01-3.002-3.01-3.002-3.009 3.002z"/>
            <path fill="#C9033E" d="M2.796 17.884L.151 15.245c-.201-.2-.201-.525 0-.726l2.645-2.639 3.01 3.002-3.01 3.002z"/>
            <path fill="#B90B3A" d="M20.937 23.973l-6.018-6.004L8.9 23.973l5.655 5.64c.2.201.527.201.727 0l5.655-5.64z"/>
            <path fill="#A3142C" d="M17.928 20.971l-3.01-3.002-3.009 3.002 3.01 3.002z"/>
            <path fill="#C9033E" d="M17.928 26.975l-2.646 2.638a.515.515 0 0 1-.727 0l-2.646-2.638 3.01-3.002 3.009 3.002z"/>
            <path fill="#D4DAE0" d="M8.9 5.79l6.019 6.004 6.018-6.003L15.283.15a.516.516 0 0 0-.728 0L8.9 5.79z"/>
            <path fill="#CACFD6" d="M11.91 8.793l3.009 3.001 3.009-3.001-3.01-3.002z"/>
            <path fill="#DAE0E5" d="M11.91 2.789L14.554.151c.2-.2.526-.2.728 0l2.645 2.638-3.01 3.002-3.009-3.002z"/>
        </g>
    </g>
</svg>
