<svg xmlns="http://www.w3.org/2000/svg" width="30" height="21" viewBox="0 0 30 21">
    <path fill="#FFF" fill-rule="evenodd" d="M11.903 14.373l-.001-8.39 8.105 4.21-8.104 4.18zM29.7 4.53s-.293-2.057-1.192-2.963C27.367.377 26.088.37 25.502.302 21.304 0 15.007 0 15.007 0h-.014S8.696 0 4.498.302c-.587.07-1.865.075-3.006 1.265C.592 2.473.3 4.53.3 4.53S0 6.947 0 9.362v2.266c0 2.416.3 4.832.3 4.832s.292 2.057 1.192 2.963c1.141 1.19 2.64 1.152 3.308 1.277 2.4.23 10.2.3 10.2.3s6.304-.01 10.502-.312c.586-.07 1.865-.075 3.006-1.265.899-.906 1.192-2.963 1.192-2.963s.3-2.416.3-4.832V9.362c0-2.415-.3-4.832-.3-4.832z"/>
</svg>
